<svg width="145" height="52" viewBox="0 0 145 52" fill="none" xmlns="http://www.w3.org/2000/svg">
<path d="M125.678 51.4779L122.134 36.4106H125.246L127.912 49.3056H128.174L130.931 36.8112H135.153L137.91 49.3056H138.157L140.853 36.4106H143.934L140.391 51.4779H135.861L133.596 41.0479L133.165 38.9835H132.919L132.503 41.0479L130.238 51.4779H125.678Z" fill="#16A34A"/>
<path d="M113.701 51.863C111.483 51.863 109.798 51.2724 108.648 50.0913C107.498 48.9101 106.922 47.2103 106.922 44.9918V42.8504C106.922 40.6421 107.498 38.9526 108.648 37.7817C109.798 36.6006 111.483 36.01 113.701 36.01C115.92 36.01 117.599 36.6006 118.739 37.7817C119.889 38.9526 120.464 40.6421 120.464 42.8504V44.9918C120.464 47.2103 119.889 48.9101 118.739 50.0913C117.599 51.2724 115.92 51.863 113.701 51.863ZM113.701 49.4134C114.923 49.4134 115.853 49.0488 116.49 48.3196C117.126 47.5903 117.445 46.5427 117.445 45.1767V42.6655C117.445 41.3097 117.126 40.2724 116.49 39.5534C115.853 38.8242 114.923 38.4596 113.701 38.4596C112.479 38.4596 111.549 38.8242 110.913 39.5534C110.276 40.2724 109.957 41.3097 109.957 42.6655V45.1767C109.957 46.5427 110.276 47.5903 110.913 48.3196C111.549 49.0488 112.479 49.4134 113.701 49.4134Z" fill="#16A34A"/>
<path d="M100.851 51.4777V42.1724C100.851 41.4432 100.748 40.8115 100.543 40.2774C100.348 39.7433 100.019 39.3274 99.557 39.0295C99.1051 38.7317 98.4837 38.5827 97.6929 38.5827C96.9636 38.5827 96.332 38.7163 95.7979 38.9833C95.2638 39.2503 94.8273 39.6098 94.4884 40.0617C94.1597 40.5137 93.9235 41.0272 93.7797 41.6024L93.2867 39.5071H93.9338C94.1084 38.8703 94.3959 38.2952 94.7965 37.7816C95.1971 37.2578 95.7311 36.8418 96.3987 36.5337C97.0663 36.2256 97.8931 36.0715 98.8791 36.0715C100.06 36.0715 101.015 36.2975 101.745 36.7494C102.474 37.191 103.008 37.8381 103.347 38.6906C103.696 39.5431 103.871 40.5907 103.871 41.8334V51.4777H100.851ZM90.8679 51.4777V36.4105H93.8875L93.7643 39.9385L93.8875 40.1234V51.4777H90.8679Z" fill="#16A34A"/>
<path d="M79.942 42.3636L79.2912 39.9927H80.035C80.3553 38.7943 80.8925 37.8541 81.6466 37.1723C82.4008 36.4801 83.4287 36.134 84.7304 36.134C85.0404 36.134 85.3142 36.1599 85.5518 36.2115C85.7997 36.2528 86.0218 36.3045 86.2181 36.3665L86.4041 39.3263C86.1561 39.2437 85.8772 39.1817 85.5673 39.1404C85.2573 39.0887 84.9216 39.0629 84.56 39.0629C83.4546 39.0629 82.499 39.347 81.6931 39.9152C80.8873 40.4834 80.3036 41.2995 79.942 42.3636ZM77.0287 51.5221V36.3665H79.9885L79.8491 40.783L80.066 40.9999V51.5221H77.0287Z" fill="#16A34A"/>
<path d="M70.4123 51.522L70.5363 47.9268L70.4278 47.4619V42.689L70.4433 41.9297C70.4433 40.7623 70.1437 39.9048 69.5445 39.3573C68.9557 38.8097 68.0052 38.5359 66.6932 38.5359C65.6291 38.5359 64.6425 38.6857 63.7333 38.9853C62.8242 39.2849 62.0029 39.631 61.2694 40.0236L61.5483 37.4822C61.9616 37.2446 62.4471 37.0121 63.005 36.7848C63.5629 36.5576 64.1931 36.3716 64.8956 36.227C65.5981 36.0823 66.3678 36.01 67.2046 36.01C68.3513 36.01 69.3224 36.1495 70.1179 36.4284C70.9134 36.697 71.5539 37.0896 72.0395 37.6061C72.525 38.1227 72.8763 38.7426 73.0932 39.4657C73.3205 40.1889 73.4342 40.9947 73.4342 41.8832V51.522H70.4123ZM65.283 51.8629C63.785 51.8629 62.6383 51.4962 61.8428 50.7627C61.0473 50.0189 60.6495 48.9651 60.6495 47.6014V47.1365C60.6495 45.6902 61.0938 44.6209 61.9822 43.9287C62.881 43.2262 64.2912 42.7407 66.2128 42.4721L70.7688 41.8212L70.9392 44.0217L66.5692 44.6416C65.5258 44.7862 64.7819 45.0393 64.3377 45.4009C63.8935 45.7521 63.6714 46.2739 63.6714 46.966V47.183C63.6714 47.8752 63.8831 48.4072 64.3067 48.7791C64.7406 49.151 65.3966 49.337 66.2748 49.337C67.0806 49.337 67.7728 49.2027 68.3513 48.9341C68.9298 48.6655 69.3999 48.3091 69.7615 47.8648C70.1231 47.4103 70.371 46.9092 70.5053 46.3617L70.9237 48.3917H70.3658C70.2005 49.0116 69.9268 49.5849 69.5445 50.1118C69.1623 50.6387 68.6251 51.0623 67.9329 51.3825C67.251 51.7028 66.3677 51.8629 65.283 51.8629Z" fill="#16A34A"/>
<path d="M54.8856 51.522L55.0096 47.9268L54.9011 47.4619V42.689L54.9166 41.9297C54.9166 40.7623 54.617 39.9048 54.0178 39.3573C53.4289 38.8097 52.4785 38.5359 51.1664 38.5359C50.1023 38.5359 49.1157 38.6857 48.2066 38.9853C47.2975 39.2849 46.4762 39.631 45.7427 40.0236L46.0216 37.4822C46.4348 37.2446 46.9204 37.0121 47.4783 36.7848C48.0361 36.5576 48.6663 36.3716 49.3688 36.227C50.0714 36.0823 50.841 36.01 51.6778 36.01C52.8246 36.01 53.7957 36.1495 54.5912 36.4284C55.3867 36.697 56.0272 37.0896 56.5127 37.6061C56.9983 38.1227 57.3495 38.7426 57.5665 39.4657C57.7938 40.1889 57.9074 40.9947 57.9074 41.8832V51.522H54.8856ZM49.7563 51.8629C48.2583 51.8629 47.1115 51.4962 46.316 50.7627C45.5205 50.0189 45.1228 48.9651 45.1228 47.6014V47.1365C45.1228 45.6902 45.567 44.6209 46.4555 43.9287C47.3543 43.2262 48.7645 42.7407 50.686 42.4721L55.242 41.8212L55.4125 44.0217L51.0425 44.6416C49.999 44.7862 49.2552 45.0393 48.811 45.4009C48.3667 45.7521 48.1446 46.2739 48.1446 46.966V47.183C48.1446 47.8752 48.3564 48.4072 48.78 48.7791C49.2139 49.151 49.8699 49.337 50.748 49.337C51.5539 49.337 52.246 49.2027 52.8246 48.9341C53.4031 48.6655 53.8732 48.3091 54.2347 47.8648C54.5963 47.4103 54.8443 46.9092 54.9786 46.3617L55.397 48.3917H54.8391C54.6738 49.0116 54.4 49.5849 54.0178 50.1118C53.6355 50.6387 53.0983 51.0623 52.4062 51.3825C51.7243 51.7028 50.841 51.8629 49.7563 51.8629Z" fill="#16A34A"/>
<path d="M43.2676 49.0116V51.522H31.4902V49.2441L39.5484 38.8614H31.5367V36.3665H43.1901V38.6289L35.1319 49.0116H43.2676Z" fill="#16A34A"/>
<path d="M25.6783 51.522L25.8023 47.9268L25.6938 47.4619V42.689L25.7093 41.9297C25.7093 40.7623 25.4097 39.9048 24.8105 39.3573C24.2217 38.8097 23.2712 38.5359 21.9592 38.5359C20.8951 38.5359 19.9085 38.6857 18.9993 38.9853C18.0902 39.2849 17.2689 39.631 16.5354 40.0236L16.8143 37.4822C17.2276 37.2446 17.7131 37.0121 18.271 36.7848C18.8289 36.5576 19.4591 36.3716 20.1616 36.227C20.8641 36.0823 21.6337 36.01 22.4705 36.01C23.6173 36.01 24.5884 36.1495 25.3839 36.4284C26.1794 36.697 26.8199 37.0896 27.3055 37.6061C27.791 38.1227 28.1423 38.7426 28.3592 39.4657C28.5865 40.1889 28.7001 40.9947 28.7001 41.8832V51.522H25.6783ZM20.549 51.8629C19.051 51.8629 17.9042 51.4962 17.1088 50.7627C16.3133 50.0189 15.9155 48.9651 15.9155 47.6014V47.1365C15.9155 45.6902 16.3598 44.6209 17.2482 43.9287C18.147 43.2262 19.5572 42.7407 21.4788 42.4721L26.0347 41.8212L26.2052 44.0217L21.8352 44.6416C20.7918 44.7862 20.0479 45.0393 19.6037 45.4009C19.1595 45.7521 18.9373 46.2739 18.9373 46.966V47.183C18.9373 47.8752 19.1491 48.4072 19.5727 48.7791C20.0066 49.151 20.6626 49.337 21.5408 49.337C22.3466 49.337 23.0388 49.2027 23.6173 48.9341C24.1958 48.6655 24.6659 48.3091 25.0275 47.8648C25.3891 47.4103 25.637 46.9092 25.7713 46.3617L26.1897 48.3917H25.6318C25.4665 49.0116 25.1928 49.5849 24.8105 50.1118C24.4283 50.6387 23.8911 51.0623 23.1989 51.3825C22.517 51.7028 21.6337 51.8629 20.549 51.8629Z" fill="#16A34A"/>
<path d="M7.88772 51.8629C6.98892 51.8629 6.2141 51.7235 5.56325 51.4445C4.91239 51.1553 4.38035 50.7524 3.96711 50.2358C3.5642 49.7089 3.26976 49.0994 3.0838 48.4072H2.07653L2.95983 45.5404C3.00116 46.3875 3.19228 47.0952 3.5332 47.6634C3.87413 48.2213 4.33902 48.6397 4.92789 48.9186C5.51676 49.1975 6.18827 49.337 6.94244 49.337C8.09951 49.337 8.98281 49.0012 9.59234 48.3297C10.2019 47.6479 10.5066 46.6354 10.5066 45.2924V42.4566C10.5066 41.1549 10.1967 40.1682 9.57684 39.4967C8.96731 38.8252 8.07885 38.4895 6.91144 38.4895C6.1986 38.4895 5.56841 38.6238 5.02087 38.8924C4.47332 39.161 4.01876 39.5277 3.65718 39.9926C3.30592 40.4472 3.05798 40.9689 2.91334 41.5578L2.24699 39.4812H3.1148C3.29042 38.8407 3.5642 38.2622 3.93611 37.7456C4.31836 37.2187 4.84008 36.8003 5.50126 36.4904C6.16244 36.1805 6.99926 36.0255 8.01169 36.0255C9.81962 36.0255 11.1936 36.5937 12.1338 37.7301C13.0842 38.8665 13.5594 40.5247 13.5594 42.7045V45.1065C13.5594 47.307 13.0791 48.9858 12.1183 50.1428C11.1575 51.2896 9.7473 51.8629 7.88772 51.8629ZM0 51.522V31.0046H3.02182V35.8395L2.94434 40.1941L2.95983 40.7209V47.0125L2.91334 47.9733L3.03732 51.522H0Z" fill="#16A34A"/>
<path d="M56.6019 32.1202C54.7448 32.1202 53.3199 31.679 52.327 30.7964C51.3157 29.9138 50.8101 28.7922 50.8101 27.4316C50.8101 26.7145 50.9847 26.0342 51.3341 25.3907C51.665 24.7471 52.1707 24.1955 52.851 23.7359C53.5129 23.2578 54.3219 22.9268 55.2781 22.743C55.5539 22.6878 55.8389 22.651 56.133 22.6326C56.4456 22.5959 56.7582 22.5775 57.0708 22.5775C58.1924 22.5775 59.1393 22.8257 59.9115 23.3222C60.6838 23.8002 61.0699 24.5633 61.0699 25.6113C61.0699 26.4939 60.7573 27.1926 60.1322 27.7074C59.5254 28.2406 58.6153 28.5072 57.4017 28.5072C56.6846 28.5072 56.0687 28.3785 55.5539 28.1211C55.039 27.8821 54.6437 27.5235 54.3679 27.0455C54.0921 26.5858 53.9542 26.0526 53.9542 25.4458C53.9542 24.931 53.991 24.4805 54.0645 24.0944C54.1381 23.6899 54.2116 23.3222 54.2852 22.9912C54.3587 22.6602 54.3955 22.3477 54.3955 22.0535C54.3955 21.649 54.2944 21.3272 54.0921 21.0882C53.9082 20.8491 53.5497 20.6377 53.0165 20.4538L54.5334 18.5232C55.3056 18.8725 55.8848 19.2679 56.2709 19.7091C56.6755 20.1504 56.8777 20.7112 56.8777 21.3915C56.8777 21.9248 56.8225 22.412 56.7122 22.8533C56.6019 23.2762 56.4824 23.6899 56.3537 24.0944C56.2434 24.4805 56.1882 24.885 56.1882 25.3079C56.1882 25.8044 56.3169 26.1353 56.5743 26.3008C56.8501 26.4663 57.1535 26.549 57.4845 26.549C57.8522 26.549 58.1372 26.4571 58.3395 26.2732C58.5417 26.1078 58.6428 25.8963 58.6428 25.6389C58.6428 25.3631 58.5233 25.1149 58.2843 24.8942C58.0637 24.692 57.6775 24.5908 57.1259 24.5908C56.8134 24.5908 56.5008 24.6092 56.1882 24.646C55.8756 24.7012 55.5539 24.7839 55.2229 24.8942C55.0942 24.931 54.9563 24.9494 54.8092 24.9494C54.6805 24.9678 54.561 25.0137 54.4506 25.0873C54.1013 25.2895 53.8071 25.5745 53.5681 25.9423C53.3291 26.3284 53.2095 26.7973 53.2095 27.3489C53.2095 28.1947 53.5129 28.829 54.1197 29.2519C54.7265 29.6932 55.5814 29.9138 56.6846 29.9138C57.6224 29.9138 58.459 29.8035 59.1945 29.5829C59.9483 29.3622 60.6378 28.9669 61.263 28.3969L63.0281 30.0793C62.1639 30.7964 61.2262 31.3112 60.2149 31.6238C59.222 31.9548 58.0177 32.1202 56.6019 32.1202Z" fill="#DC2626"/>
<path d="M26.23 22.4121C25.1084 22.4121 24.1247 22.2098 23.2789 21.8053C22.4331 21.3824 21.7804 20.794 21.3207 20.0402C20.8611 19.2679 20.6312 18.3762 20.6312 17.3649C20.6312 16.5007 20.8151 15.7377 21.1828 15.0757C21.569 14.3954 22.1022 13.8714 22.7825 13.5037C23.4812 13.1175 24.2902 12.9245 25.2095 12.9245C26.3863 12.9245 27.2873 13.1819 27.9124 13.6967C28.5559 14.1932 28.8777 14.8827 28.8777 15.7652C28.8777 16.0594 28.8317 16.3628 28.7398 16.6754C28.6663 16.9696 28.5743 17.2178 28.464 17.4201L26.037 17.227C26.0737 17.1167 26.1013 16.9972 26.1197 16.8685C26.1565 16.7397 26.1749 16.6202 26.1749 16.5099C26.1749 16.1789 26.0829 15.9307 25.8991 15.7652C25.7152 15.5998 25.4486 15.517 25.0992 15.517C24.6763 15.517 24.3086 15.6641 23.996 15.9583C23.7018 16.2341 23.5547 16.657 23.5547 17.227C23.5547 17.8889 23.8121 18.4221 24.327 18.8266C24.8602 19.2128 25.6692 19.4058 26.754 19.4058C27.9492 19.4058 28.8134 19.1208 29.3466 18.5508C29.8982 17.9809 30.22 17.2178 30.3119 16.2617H33.3457C33.4193 17.3649 33.7226 18.1647 34.2559 18.6612C34.7891 19.1576 35.4142 19.4058 36.1313 19.4058C36.9955 19.4058 37.6023 19.13 37.9516 18.5784C38.301 18.0268 38.4756 17.3465 38.4756 16.5375C38.4756 15.7469 38.3285 14.993 38.0343 14.2759C37.7585 13.5588 37.3724 12.9061 36.876 12.3177C36.3795 11.7293 35.8004 11.2237 35.1384 10.8008C34.4949 10.3595 33.8146 10.0286 33.0975 9.80791L37.731 9.36663C38.6135 9.95501 39.3582 10.6169 39.965 11.3524C40.5717 12.0879 41.0314 12.8969 41.344 13.7795C41.6749 14.6436 41.8404 15.5722 41.8404 16.5651C41.8404 17.9625 41.6014 19.0933 41.1233 19.9574C40.6453 20.8032 40.0109 21.4284 39.2203 21.8329C38.4481 22.219 37.6115 22.4121 36.7105 22.4121C35.7912 22.4121 35.0005 22.3018 34.3386 22.0811C33.6767 21.8421 33.0975 21.4927 32.601 21.0331C32.123 20.555 31.6541 19.9666 31.1945 19.2679L32.5459 19.2404C31.9943 20.0494 31.4151 20.6837 30.8083 21.1434C30.2016 21.6031 29.5304 21.934 28.795 22.1363C28.0779 22.3201 27.2229 22.4121 26.23 22.4121ZM20.6312 9.83549V6.85683H34.9729C35.9658 6.85683 36.6645 6.82005 37.069 6.74651C37.4736 6.67296 37.7769 6.56264 37.9792 6.41554C38.2366 6.25006 38.4021 6.06619 38.4756 5.86394C38.5492 5.6433 38.586 5.39507 38.586 5.11927C38.586 4.56767 38.4481 4.03445 38.1723 3.51962C37.8964 3.00479 37.4919 2.46238 36.9587 1.89239L39.5513 0.320312C40.4338 1.36836 41.0314 2.30609 41.344 3.1335C41.6749 3.94252 41.8404 4.77912 41.8404 5.6433C41.8404 6.04781 41.7577 6.52586 41.5922 7.07747C41.4451 7.62907 41.1325 8.12552 40.6545 8.5668C40.158 8.9897 39.5421 9.31147 38.8066 9.53211C38.0711 9.73436 37.0507 9.83549 35.7452 9.83549H20.6312ZM45.6189 22.4121C44.148 22.4121 42.8609 22.0719 41.7577 21.3916C40.6729 20.6929 39.634 19.7828 38.6411 18.6612L40.6269 16.5375C41.2704 17.4201 41.9507 18.1188 42.6678 18.6336C43.4033 19.1484 44.2583 19.4058 45.2328 19.4058C46.2992 19.4058 47.1174 19.0933 47.6874 18.4681C48.2574 17.843 48.5424 16.988 48.5424 15.9031C48.5424 14.8367 48.331 13.899 47.9081 13.09C47.4852 12.2626 46.906 11.5547 46.1705 10.9663C45.435 10.3595 44.5984 9.84468 43.6607 9.42179L45.3983 6.49828C46.6486 7.08666 47.761 7.83133 48.7355 8.73228C49.71 9.61485 50.4822 10.6629 51.0522 11.8764C51.6222 13.0716 51.9072 14.4138 51.9072 15.9031C51.9072 17.1902 51.6774 18.321 51.2177 19.2955C50.758 20.27 50.0593 21.0331 49.1216 21.5847C48.2023 22.1363 47.0347 22.4121 45.6189 22.4121Z" fill="#DC2626"/>
<path d="M13.1006 22.4121C12.1261 22.4121 11.2895 22.2558 10.5908 21.9432C9.91049 21.6122 9.28534 21.1618 8.71535 20.5918C8.16375 20.0218 7.63053 19.3599 7.1157 18.606C6.76635 18.0728 6.46297 17.6591 6.20555 17.3649C5.96652 17.0707 5.73669 16.8685 5.51605 16.7581C5.31379 16.6294 5.08396 16.5651 4.82654 16.5651C4.34848 16.5651 3.97155 16.7214 3.69575 17.0339C3.43834 17.3465 3.30963 17.751 3.30963 18.2475C3.30963 18.7991 3.41995 19.3231 3.64059 19.8195C3.87962 20.316 4.183 20.8492 4.55074 21.4192L1.54449 22.6327C1.10321 22.0443 0.735473 21.3456 0.441284 20.5366C0.147095 19.7092 0 18.9278 0 18.1923C0 17.2913 0.183868 16.5007 0.551605 15.8204C0.937728 15.1401 1.48014 14.6069 2.17884 14.2207C2.89592 13.8346 3.74172 13.6416 4.71622 13.6416C5.76427 13.6416 6.65603 13.8714 7.3915 14.3311C8.14536 14.7907 8.89922 15.5722 9.65308 16.6754C10.076 17.2638 10.4529 17.7694 10.7839 18.1923C11.1332 18.5968 11.4918 18.9002 11.8595 19.1024C12.2456 19.3047 12.6869 19.4058 13.1833 19.4058C13.9372 19.4058 14.4888 19.1484 14.8382 18.6336C15.2059 18.1004 15.3898 17.4109 15.3898 16.5651C15.3898 15.5354 15.1599 14.5793 14.7003 13.6967C14.259 12.7958 13.643 12.0143 12.8524 11.3524C12.0618 10.6905 11.1516 10.1848 10.1219 9.83549H0.0275802V6.85683H11.8871C12.88 6.85683 13.5787 6.82005 13.9832 6.7465C14.3877 6.67296 14.6911 6.56264 14.8933 6.41554C15.1324 6.25006 15.2886 6.06619 15.3622 5.86394C15.4357 5.6433 15.4725 5.39507 15.4725 5.11927C15.4725 4.56767 15.3346 4.03445 15.0588 3.51962C14.8014 3.00479 14.4061 2.46238 13.8729 1.89238L16.4654 0.320312C17.3296 1.36836 17.918 2.30609 18.2305 3.1335C18.5615 3.94252 18.727 4.77912 18.727 5.6433C18.727 6.04781 18.6442 6.52586 18.4788 7.07747C18.3317 7.62907 18.0191 8.12552 17.541 8.5668C17.0446 8.9897 16.4746 9.29308 15.831 9.47695C15.2059 9.64243 14.4428 9.75275 13.5419 9.80791H12.88L14.6175 9.36663C15.5185 9.95501 16.2723 10.6169 16.8791 11.3524C17.4859 12.0879 17.9455 12.8969 18.2581 13.7795C18.5707 14.6436 18.727 15.5722 18.727 16.5651C18.727 18.4773 18.2397 19.9299 17.2652 20.9227C16.3091 21.9156 14.9209 22.4121 13.1006 22.4121Z" fill="#DC2626"/>
<rect x="7.6499" y="27.5503" width="38.2443" height="3" fill="#FACC15"/>
</svg>
